{"title":"The Flash S02E15 King Shark 1080P WEB-DL DD5 1 H 264","uid":13670382,"size":1771101361,"categoryP":"video","categoryS":"hd___tv_shows","magnet":"?xt=urn:btih:947009212696faf9d0dd313a9dc403e303a5a44e&amp;dn=The+Flash+S02E15+King+Shark+1080P+WEB-DL+DD5+1+H+264&amp;tr=udp%3A%2F%2Ftracker.leechers-paradise.org%3A6969&amp;tr=udp%3A%2F%2Fzer0day.ch%3A1337&amp;tr=udp%3A%2F%2Fopen.demonii.com%3A1337&amp;tr=udp%3A%2F%2Ftracker.coppersurfer.tk%3A6969&amp;tr=udp%3A%2F%2Fexodus.desync.com%3A6969","seeders":1,"leechers":0,"uploader":"jmanwf","files":2,"time":1456312496,"description":"When King Shark escapes from an A.R.G.U.S. holding tank, Lila Michaels (guest star Audrey Marie Anderson) and John Diggle (guest star David Ramsey) travel to Central City to warn The Flash, but unfortunately King Shark shows up at the West house and attacks Joe, Iris, Wally and Barry.\r\n\r\n\r\nVideo\r\nID : 2\r\nFormat : AVC\r\nFormat/Info : Advanced Video Codec\r\nFormat profile :   \r\nFormat settings, CABAC : Yes\r\nFormat settings, ReFrames : 4 frames\r\nCodec ID : avc1\r\nCodec ID/Info : Advanced Video Coding\r\nDuration : 42mn 27s\r\nBit rate : 5 048 Kbps\r\nWidth : 1 916 pixels\r\nHeight : 1 076 pixels\r\nDisplay aspect ratio : 16:9\r\nFrame rate mode : Constant\r\nFrame rate : 23.976 fps\r\nColor space : YUV\r\nChroma subsampling : 4:2:0\r\nBit depth : 8 bits\r\nScan type : Progressive\r\nBits/(Pixel*Frame) : 0.102\r\nStream size : 1.50 GiB (91%)\r\nLanguage : English\r\nEncoded date : UTC 2016-02-24 09:16:44\r\nTagged date : UTC 2016-02-24 09:20:56\r\nColor range : Limited\r\nColor primaries : BT.709\r\nTransfer characteristics : BT.709\r\nMatrix coefficients : BT.709\r\n\r\nAudio #1\r\nID : 1\r\nFormat : AAC\r\nFormat/Info : Advanced Audio Codec\r\nFormat profile : LC\r\nCodec ID : 40\r\nDuration : 42mn 27s\r\nBit rate mode : Variable\r\nBit rate : 125 Kbps\r\nMaximum bit rate : 194 Kbps\r\nChannel(s) : 2 channels\r\nChannel positions : Front: L R\r\nSampling rate : 48.0 KHz\r\nCompression mode : Lossy\r\nStream size : 37.8 MiB (2%)\r\nLanguage : English\r\nEncoded date : UTC 2016-02-24 09:16:44\r\nTagged date : UTC 2016-02-24 09:20:56\r\n\r\nAudio #2\r\nID : 3\r\nFormat : AC-3\r\nFormat/Info : Audio Coding 3\r\nMode extension : CM (complete main)\r\nFormat settings, Endianness : Big\r\nCodec ID : ac-3\r\nDuration : 42mn 27s\r\nBit rate mode : Constant\r\nBit rate : 384 Kbps\r\nChannel(s) : 6 channels\r\nChannel positions : Front: L C R, Side: L R, LFE\r\nSampling rate : 48.0 KHz\r\nBit depth : 16 bits\r\nCompression mode : Lossy\r\nStream size : 117 MiB (7%)\r\nLanguage : English\r\nEncoded date : UTC 2016-02-24 09:16:44\r\nTagged date : UTC 2016-02-24 09:20:56\r\n\r\nText\r\nID : 4-CC1\r\nFormat : EIA-608\r\nMuxing mode : Final Cut\r\nCodec ID : c608\r\nDuration : 42mn 22s\r\nBit rate mode : Constant\r\nStream size : 0.00 Byte (0%)\r\nLanguage : English\r\nEncoded date : UTC 2016-02-24 09:16:44\r\nTagged date : UTC 2016-02-24 09:16:52","torrent":{"xt":"urn:btih:947009212696faf9d0dd313a9dc403e303a5a44e","amp;dn":"The+Flash+S02E15+King+Shark+1080P+WEB-DL+DD5+1+H+264","amp;tr":["udp%3A%2F%2Ftracker.leechers-paradise.org%3A6969","udp%3A%2F%2Fzer0day.ch%3A1337","udp%3A%2F%2Fopen.demonii.com%3A1337","udp%3A%2F%2Ftracker.coppersurfer.tk%3A6969","udp%3A%2F%2Fexodus.desync.com%3A6969"],"infoHash":"947009212696faf9d0dd313a9dc403e303a5a44e","infoHashBuffer":{"type":"Buffer","data":[148,112,9,33,38,150,250,249,208,221,49,58,157,196,3,227,3,165,164,78]},"announce":[],"urlList":[]}}